<svg width="62" height="60" viewBox="0 0 62 60" fill="none" xmlns="http://www.w3.org/2000/svg">
<path d="M18.7 5.46997C18.892 6.99426 19.1691 8.50662 19.53 9.99998C19.61 10.12 20.36 9.49998 20.4 9.36998C20.44 9.23998 20.09 7.41998 20.09 7.29998C20.8188 7.39942 21.5403 7.5464 22.25 7.73997C22.37 7.73997 22.37 7.02998 22.37 6.86998C21.195 6.28525 19.9659 5.81637 18.7 5.46997V5.46997ZM38.21 5.35998C37.0567 5.93968 35.9787 6.65836 35 7.49998C35.17 7.65998 35.29 8.03998 35.54 8.11998C35.79 8.19998 35.83 7.82998 36.78 7.19998C37.7425 6.68207 38.7459 6.24393 39.78 5.88998C39.9 5.80998 39.65 5.13998 39.44 4.88998C39.23 4.63998 39.41 4.92998 38.21 5.35998V5.35998ZM56.69 36.43C53.61 35.79 53.48 34.88 53.6 34.71C53.72 34.54 55.13 34.32 58.34 30.06C60.4429 26.9805 61.3561 23.2422 60.91 19.54C60.74 19.04 59.99 19.13 58.59 19.72C57.2734 20.2763 55.9161 20.7309 54.53 21.08C54.36 21.08 54.82 20.46 56.69 16.08C58.56 11.7 58.16 8.25998 57.75 8.21998C57.34 8.17998 53.03 10.29 50.3 11.22C48.1708 11.9134 45.949 12.2809 43.71 12.31C43.29 12.19 45.71 1.07998 45.57 0.789975C45.43 0.499975 43.49 0.289975 38.64 1.99998C35.3278 3.2711 32.2107 5.00135 29.38 7.13998C29.38 7.13998 28.38 5.35998 23.38 3.52998C20.6731 2.42009 17.8077 1.7451 14.89 1.52998C14.68 1.52998 15.03 3.14998 15.38 5.58998C15.73 8.02998 16.14 12.52 16.14 12.64C16.14 12.76 14.94 12.82 12.14 12.8C9.33999 12.78 3.24999 12.5 2.83999 12.67C2.42999 12.84 2.43999 15.08 4.33999 19.13C5.50268 21.5935 7.01865 23.8742 8.83999 25.9C8.83999 25.9 7.06999 27.24 5.03999 28.9C3.3337 30.4598 1.87079 32.2665 0.699991 34.26C0.579991 34.59 1.99999 35.5 4.69999 35.81C6.60161 36.0793 8.46038 36.5935 10.23 37.34C10.23 37.34 9.48999 38.22 8.04999 39.64C6.60999 41.06 2.99999 47.2 2.67999 47.82C2.35999 48.44 3.18999 49.27 3.89999 49.26C4.60999 49.25 13.28 48.9 13.78 48.85C14.28 48.8 12.25 55.42 12.17 55.63C12.09 55.84 13.5 56.16 16.17 55.85C17.9944 55.5018 19.675 54.6215 21 53.32C21.6449 54.0474 22.4092 54.6595 23.26 55.13C24.6855 55.8106 26.2248 56.2209 27.8 56.34C27.8 56.34 27.94 58.75 28.03 59.04C28.12 59.33 29.24 59.32 29.69 59.32C30.2158 59.2783 30.7441 59.2783 31.27 59.32C31.5986 59.3997 31.9414 59.3997 32.27 59.32C32.7932 59.235 33.3267 59.235 33.85 59.32C34.0014 59.355 34.1588 59.3542 34.3098 59.3177C34.4608 59.2813 34.6013 59.2102 34.72 59.11C34.8 58.94 34.82 56.11 34.82 56.11C35.3746 56.0289 35.9182 55.8846 36.44 55.68C37.31 55.34 40.99 53.4 40.99 53.4C41.3606 53.7711 41.7658 54.1059 42.2 54.4C44.0341 55.3143 45.986 55.9706 48 56.35C50.2 56.75 51.57 55.91 51.73 55.35C51.89 54.79 51.84 48.17 51.73 47.83C51.62 47.49 51.89 47.5 55.98 45.06C57.322 44.2514 58.4867 43.18 59.4044 41.9101C60.322 40.6402 60.9736 39.1979 61.32 37.67C61.34 37 59.76 37.07 56.69 36.43ZM33.23 58.33C32.7298 58.4804 32.1989 58.4977 31.69 58.38C31.2262 58.1451 30.7093 58.0349 30.19 58.06C29.78 58.15 29.53 58.44 29.4 58.27C29.2406 57.6466 29.1799 57.0021 29.22 56.36C29.34 56.24 30.47 56.43 31.59 56.36C32.71 56.29 33.25 56.31 33.25 56.43C33.25 56.55 33.4 58.29 33.23 58.33ZM41.47 50.33C41.0788 50.7969 40.6508 51.2316 40.19 51.63C39.4218 51.0209 38.5982 50.4852 37.73 50.03C37.52 50.11 37.23 50.41 37.32 50.57C37.41 50.73 39.32 52.09 39.24 52.22C39.16 52.35 38.08 53.1 37.96 52.98C37.1783 52.3016 36.3569 51.6705 35.5 51.09C35.33 51.09 34.84 51.47 34.92 51.63C35 51.79 37.3 53.27 37.05 53.44C36.8 53.61 35.48 54.2 35.31 54.08C35.14 53.96 33.38 52.14 33.22 52.15C33.06 52.16 32.6 52.4 32.73 52.61C32.86 52.82 34.16 54.38 34.16 54.38C31.454 54.7036 28.7172 54.6699 26.02 54.28C22.32 53.6 19.71 49.51 18.52 45.16C17.33 40.81 17.33 31.55 18.62 26.43C19.91 21.31 22.19 15.23 30.2 15.17C34.2 15.17 39.05 15.39 42.83 22C46.61 28.61 46.2 33.9 45.17 39.81C44.14 45.72 42.5 49.25 41.48 50.38L41.47 50.33ZM53.72 44.71C50.21 46.52 49.79 46.71 49.72 47.02C49.65 47.33 49.9 54.28 49.61 54.33C47.9173 54.1869 46.2427 53.8787 44.61 53.41C43.19 52.92 42.61 52.47 42.61 52.35C43.7394 50.9717 44.6902 49.4564 45.44 47.84C45.8417 46.8803 46.1141 45.8715 46.25 44.84C46.25 44.84 50.82 45.05 51.25 41.84C51.68 38.63 49.43 38.11 48.77 38C48.3337 37.8989 47.8878 37.8453 47.44 37.84C47.44 37.84 48.6 27.53 45.11 21.84C41.62 16.15 37.9 13.14 30.35 13.45C22.8 13.76 18.76 17.73 16.91 25.45C15.06 33.17 15.55 37.58 15.55 37.58C15.55 37.58 11.86 37.73 11.98 42.3C12.1 46.87 16.91 45.96 16.91 45.96C16.8812 47.339 17.2604 48.6958 18 49.86C19.22 51.72 19.76 52.42 19.76 52.42C19.76 52.42 14.89 54.28 14.85 54C14.81 53.72 16.1 49.46 15.93 49C15.76 48.54 14.93 47.64 14.63 47.64C14.33 47.64 4.91999 48.05 4.82999 47.64C4.73999 47.23 6.91999 43.89 9.09999 41.13C11.28 38.37 12.35 37.33 12.31 36.95C12.27 36.57 10.8 34.84 7.59999 34.37C4.39999 33.9 3.10999 34 3.18999 33.83C4.75699 31.8159 6.55232 29.9904 8.53999 28.39C9.52959 27.8568 10.3899 27.1125 11.06 26.21C9.35674 24.3068 7.8647 22.2246 6.60999 20C4.83999 16.69 4.73999 14.49 4.85999 14.37C5.15999 14.07 18.35 14.43 18.39 14.18C18.43 13.93 16.52 2.99998 16.9 2.99998C20.0231 3.91383 23.0401 5.1575 25.9 6.70998C28.53 8.38998 28.66 9.00998 29.36 8.96998C30.06 8.92998 33.36 5.77998 37.79 4.08998C42.22 2.39998 43.71 2.29997 43.71 2.46997C43.71 2.63997 42.28 9.76998 42 11.1C41.72 12.43 41.56 13.84 41.86 13.92C44.6445 14.0001 47.4253 13.663 50.11 12.92C54.05 11.81 56.86 10.25 56.9 10.54C55.9673 13.6688 54.7558 16.7077 53.28 19.62C52.09 21.46 51.6 23.04 51.85 23.16C52.1 23.28 53.51 22.86 56.2 22.05C58.89 21.24 59.2 21.11 59.2 21.24C59.2471 23.9493 58.4808 26.6106 57 28.88C55.3944 31.0543 53.527 33.0224 51.44 34.74C51.5813 35.2856 51.8313 35.7971 52.175 36.2438C52.5186 36.6906 52.9489 37.0634 53.44 37.34C54.61 37.87 59.14 38.54 59.1 38.79C58.0089 41.3155 56.1188 43.4129 53.72 44.76V44.71ZM47.49 39.4C47.62 39.27 49.86 39.4 49.49 41.34C49.12 43.28 46.7 44 46.65 43.74C46.8245 42.9522 47.0415 42.1744 47.3 41.41C47.58 40.24 47.24 39.71 47.49 39.46V39.4ZM16.18 44.27C16.06 44.27 13.81 44 13.8 42.38C13.8205 41.7822 13.9836 41.198 14.2759 40.6761C14.5681 40.1542 14.981 39.7098 15.48 39.38C15.8623 40.9852 16.0966 42.622 16.18 44.27V44.27ZM31.46 23C38.81 22.94 40.77 24.34 41.14 24.34C41.51 24.34 41.58 22.34 41.49 21.89C41.4 21.44 37.78 19.68 31.34 19.65C24.9 19.62 22.26 21.22 21.93 21.34C20.73 21.76 21.21 24.34 21.58 24.58C21.95 24.82 24.11 23 31.46 23ZM22.36 22C22.61 21.48 25.63 20.31 31.69 20.6C37.75 20.89 40.59 21.9 40.59 22.23C40.59 22.56 40.8 23.1 40.59 23.1C37.6085 22.2447 34.5091 21.8734 31.41 22C28.4173 22.1146 25.4446 22.5402 22.54 23.27C22.2 23.17 22.28 22.13 22.36 22ZM41.95 31.39C42.11 25.7 36.95 24.87 34.14 26.01C31.33 27.15 30.14 31.52 32.46 34.7C34.78 37.88 41.79 37.05 41.95 31.36V31.39ZM33.2 34C31.27 31.39 32.2 27.84 34.58 26.86C36.96 25.88 41.12 26.6 40.99 31.28C40.86 35.96 35.13 36.63 33.2 34ZM29.94 30.8C30.09 25.56 25.31 24.8 22.75 25.8C20.19 26.8 19.04 30.88 21.21 33.8C23.38 36.72 29.79 36 29.94 30.8ZM23.15 26.68C25.26 25.82 29.15 26.44 29.06 30.75C28.97 35.06 23.66 35.66 21.88 33.26C20.1 30.86 21 27.58 23.15 26.68V26.68ZM26 30.9C26.015 30.7124 25.9803 30.5241 25.8994 30.3542C25.8184 30.1842 25.6941 30.0387 25.5389 29.9322C25.3837 29.8257 25.2031 29.762 25.0155 29.7476C24.8278 29.7331 24.6396 29.7685 24.47 29.85C24.3243 29.9287 24.1978 30.0388 24.0998 30.1723C24.0017 30.3058 23.9345 30.4593 23.9029 30.6219C23.8713 30.7845 23.8762 30.9521 23.9172 31.1126C23.9582 31.2731 24.0343 31.4224 24.14 31.55C24.2791 31.7104 24.4631 31.8253 24.6682 31.88C24.8734 31.9346 25.0902 31.9263 25.2906 31.8563C25.491 31.7863 25.6658 31.6577 25.7923 31.4871C25.9187 31.3166 25.9911 31.1121 26 30.9V30.9ZM37.75 31.35C37.765 31.1624 37.7303 30.9741 37.6494 30.8042C37.5684 30.6342 37.4441 30.4887 37.2889 30.3822C37.1337 30.2757 36.9531 30.212 36.7655 30.1976C36.5778 30.1831 36.3896 30.2185 36.22 30.3C36.0743 30.3787 35.9478 30.4888 35.8498 30.6223C35.7517 30.7558 35.6845 30.9093 35.6529 31.0719C35.6213 31.2345 35.6262 31.4021 35.6672 31.5626C35.7082 31.7231 35.7843 31.8724 35.89 32C36.0257 32.1763 36.2134 32.3055 36.4267 32.3692C36.6399 32.4329 36.8677 32.4279 37.0779 32.3549C37.2881 32.2819 37.47 32.1445 37.5978 31.9624C37.7256 31.7802 37.7928 31.5625 37.79 31.34L37.75 31.35ZM27.18 37.53C27.18 37.37 27.18 36.77 26.98 36.72C25.9885 36.997 24.9569 37.1018 23.93 37.03C22.8213 36.918 21.7739 36.4676 20.93 35.74C20.81 35.74 20.36 36.31 20.47 36.47C21.2762 37.2784 22.3349 37.7866 23.47 37.91C24.7174 38.1443 26.006 38.0123 27.18 37.53V37.53ZM41.68 36.14C40.8777 36.7802 39.9711 37.2775 39 37.61C37.9359 37.946 36.7941 37.946 35.73 37.61C35.61 37.61 35.42 38.35 35.59 38.46C36.6307 38.891 37.7865 38.9579 38.87 38.65C40.1301 38.385 41.2846 37.7556 42.19 36.84C42.13 36.66 41.89 36.11 41.68 36.14ZM31.13 44C29.43 44 29.62 37.86 29.56 37.66C29.5 37.46 28.77 37.66 28.78 37.76C28.79 37.86 28.17 45.04 31.17 45.08C34.17 45.12 33.22 37.53 33.22 37.53C32.9588 37.483 32.6912 37.483 32.43 37.53C32.27 37.67 32.84 44 31.13 44ZM22.49 44.39C22.32 44.39 21.58 44.98 21.34 45.52C21.1797 46.0887 21.1155 46.6801 21.15 47.27C21.3556 47.4225 21.604 47.5065 21.86 47.51C21.98 47.51 21.94 46.6 21.97 46.1C22 45.6 22.75 45.18 22.87 45.01C22.99 44.84 22.66 44.47 22.5 44.43L22.49 44.39ZM38.76 43.85C38.59 43.85 38.06 44.48 38.06 44.48C38.6212 44.6587 39.125 44.983 39.52 45.42C39.98 46.08 39.58 47.2 39.58 47.33C39.58 47.46 40.08 47.33 40.37 47.33C40.66 47.33 40.65 46.33 40.27 45.33C40.1291 45.0006 39.9239 44.7026 39.6663 44.4536C39.4087 44.2046 39.104 44.0096 38.77 43.88L38.76 43.85ZM30.28 47.85C25.59 48.01 23.58 46.64 23.38 46.58C23.18 46.52 23.01 47.33 23.1 47.5C23.19 47.67 25.35 48.81 30.1 48.9C34.85 48.99 38.18 47.3 38.22 47.13C38.2279 46.8439 38.1698 46.5599 38.05 46.3C35.5508 47.1852 32.9375 47.7072 30.29 47.85H30.28Z" fill="#135040"/>
</svg>
